<svg width="3569" height="3146" viewBox="0 0 3569 3146" fill="none" xmlns="http://www.w3.org/2000/svg">
<g clip-path="url(#clip0_186_183)">
<path d="M2527.76 387.77C2417.2 387.77 2327.57 477.399 2327.57 587.963C2327.57 698.527 2417.2 788.157 2527.76 788.157C2638.32 788.157 2727.95 698.527 2727.95 587.963C2727.95 477.399 2638.32 387.77 2527.76 387.77ZM2527.76 649.284C2515.63 649.284 2503.78 645.687 2493.69 638.95C2483.61 632.212 2475.75 622.635 2471.11 611.43C2466.47 600.225 2465.25 587.895 2467.62 576C2469.98 564.105 2475.82 553.179 2484.4 544.603C2492.98 536.027 2503.9 530.187 2515.8 527.821C2527.69 525.455 2540.02 526.669 2551.23 531.31C2562.43 535.951 2572.01 543.811 2578.75 553.895C2585.48 563.979 2589.08 575.835 2589.08 587.963C2589.08 596.016 2587.49 603.99 2584.41 611.43C2581.33 618.869 2576.81 625.629 2571.12 631.324C2565.43 637.018 2558.67 641.535 2551.23 644.616C2543.79 647.698 2535.81 649.284 2527.76 649.284ZM362.348 1861.1C251.784 1861.1 162.154 1950.73 162.154 2061.29C162.154 2171.86 251.784 2261.49 362.348 2261.49C472.912 2261.49 562.542 2171.86 562.542 2061.29C562.542 1950.73 472.912 1861.1 362.348 1861.1ZM362.348 2122.62C350.22 2122.62 338.364 2119.02 328.28 2112.28C318.196 2105.54 310.336 2095.97 305.695 2084.76C301.054 2073.56 299.839 2061.23 302.205 2049.33C304.572 2037.44 310.412 2026.51 318.988 2017.93C327.563 2009.36 338.49 2003.52 350.385 2001.15C362.28 1998.79 374.609 2000 385.814 2004.64C397.019 2009.28 406.596 2017.14 413.334 2027.23C420.072 2037.31 423.669 2049.17 423.669 2061.29C423.669 2069.35 422.082 2077.32 419.001 2084.76C415.919 2092.2 411.402 2098.96 405.708 2104.66C400.014 2110.35 393.254 2114.87 385.814 2117.95C378.375 2121.03 370.401 2122.62 362.348 2122.62ZM3359.79 1902.76C3339.98 1902.76 3320.6 1908.64 3304.12 1919.65C3287.65 1930.66 3274.8 1946.31 3267.22 1964.62C3259.63 1982.93 3257.65 2003.08 3261.52 2022.52C3265.38 2041.95 3274.93 2059.81 3288.94 2073.82C3302.95 2087.84 3320.81 2097.38 3340.25 2101.25C3359.68 2105.11 3379.83 2103.13 3398.14 2095.54C3416.45 2087.96 3432.1 2075.12 3443.11 2058.64C3454.12 2042.16 3460 2022.78 3460 2002.97C3460 1989.81 3457.41 1976.78 3452.37 1964.62C3447.34 1952.46 3439.95 1941.42 3430.65 1932.11C3421.34 1922.81 3410.3 1915.43 3398.14 1910.39C3385.98 1905.35 3372.95 1902.76 3359.79 1902.76ZM3359.79 2033.66C3353.72 2033.66 3347.79 2031.86 3342.74 2028.49C3337.69 2025.11 3333.76 2020.32 3331.44 2014.71C3329.11 2009.1 3328.51 2002.93 3329.69 1996.98C3330.88 1991.02 3333.8 1985.56 3338.09 1981.26C3342.38 1976.97 3347.85 1974.05 3353.81 1972.86C3359.76 1971.68 3365.93 1972.29 3371.54 1974.61C3377.15 1976.93 3381.94 1980.87 3385.31 1985.91C3388.69 1990.96 3390.49 1996.9 3390.49 2002.97C3390.49 2007 3389.69 2010.99 3388.15 2014.71C3386.61 2018.44 3384.35 2021.82 3381.5 2024.67C3378.65 2027.52 3375.26 2029.78 3371.54 2031.32C3367.82 2032.87 3363.82 2033.66 3359.79 2033.66Z" fill="#FEEFFF"/>
<path d="M2562.29 1280.96C2591.52 1280.96 2615.22 1257.27 2615.22 1228.04C2615.22 1198.81 2591.52 1175.12 2562.29 1175.12C2533.07 1175.12 2509.37 1198.81 2509.37 1228.04C2509.37 1257.27 2533.07 1280.96 2562.29 1280.96Z" fill="#F9B5FF"/>
<path d="M1071.54 2362.06C1100.77 2362.06 1124.46 2338.37 1124.46 2309.14C1124.46 2279.91 1100.77 2256.22 1071.54 2256.22C1042.31 2256.22 1018.62 2279.91 1018.62 2309.14C1018.62 2338.37 1042.31 2362.06 1071.54 2362.06Z" fill="#F9B5FF"/>
<path d="M636.031 1132.02H591.868V1087.85C591.868 1080.2 588.826 1072.85 583.41 1067.44C577.995 1062.02 570.65 1058.98 562.992 1058.98C555.333 1058.98 547.989 1062.02 542.573 1067.44C537.158 1072.85 534.116 1080.2 534.116 1087.85V1132.02H489.952C482.294 1132.02 474.949 1135.06 469.534 1140.48C464.119 1145.89 461.076 1153.24 461.076 1160.89C461.076 1168.55 464.119 1175.9 469.534 1181.31C474.949 1186.73 482.294 1189.77 489.952 1189.77H534.116V1233.93C534.116 1241.59 537.158 1248.94 542.573 1254.35C547.989 1259.77 555.333 1262.81 562.992 1262.81C570.65 1262.81 577.995 1259.77 583.41 1254.35C588.826 1248.94 591.868 1241.59 591.868 1233.93V1189.77H636.031C643.69 1189.77 651.034 1186.73 656.45 1181.31C661.865 1175.9 664.907 1168.55 664.907 1160.89C664.907 1153.24 661.865 1145.89 656.45 1140.48C651.034 1135.06 643.69 1132.02 636.031 1132.02Z" fill="#F9B5FF"/>
<path d="M1683.4 1930H1639.24V1885.84C1639.24 1878.18 1636.2 1870.83 1630.78 1865.42C1625.37 1860 1618.02 1856.96 1610.36 1856.96C1602.71 1856.96 1595.36 1860 1589.95 1865.42C1584.53 1870.83 1581.49 1878.18 1581.49 1885.84V1930H1537.33C1529.67 1930 1522.32 1933.04 1516.91 1938.46C1511.49 1943.87 1508.45 1951.22 1508.45 1958.87C1508.45 1966.53 1511.49 1973.88 1516.91 1979.29C1522.32 1984.71 1529.67 1987.75 1537.33 1987.75H1581.49V2031.91C1581.49 2039.57 1584.53 2046.92 1589.95 2052.33C1595.36 2057.75 1602.71 2060.79 1610.36 2060.79C1618.02 2060.79 1625.37 2057.75 1630.78 2052.33C1636.2 2046.92 1639.24 2039.57 1639.24 2031.91V1987.75H1683.4C1687.2 1987.75 1690.95 1987 1694.45 1985.55C1697.96 1984.1 1701.14 1981.97 1703.82 1979.29C1706.5 1976.61 1708.63 1973.43 1710.08 1969.92C1711.53 1966.42 1712.28 1962.67 1712.28 1958.87C1712.28 1951.22 1709.24 1943.87 1703.82 1938.46C1698.41 1933.04 1691.06 1930 1683.4 1930Z" fill="#E20CCE"/>
<path d="M1137.48 1961.47H1093.32V1917.31C1093.32 1909.65 1090.28 1902.3 1084.86 1896.89C1079.45 1891.47 1072.1 1888.43 1064.44 1888.43C1056.78 1888.43 1049.44 1891.47 1044.02 1896.89C1038.61 1902.3 1035.57 1909.65 1035.57 1917.31V1961.47H991.403C983.744 1961.47 976.399 1964.51 970.984 1969.93C965.569 1975.34 962.526 1982.69 962.526 1990.35C962.526 1998 965.569 2005.35 970.984 2010.76C976.399 2016.18 983.744 2019.22 991.403 2019.22H1035.57V2063.38C1035.57 2071.04 1038.61 2078.39 1044.02 2083.8C1049.44 2089.22 1056.78 2092.26 1064.44 2092.26C1072.1 2092.26 1079.45 2089.22 1084.86 2083.8C1090.28 2078.39 1093.32 2071.04 1093.32 2063.38V2019.22H1137.48C1145.14 2019.22 1152.48 2016.18 1157.9 2010.76C1163.32 2005.35 1166.36 1998 1166.36 1990.35C1166.36 1986.55 1165.61 1982.8 1164.16 1979.29C1162.71 1975.79 1160.58 1972.61 1157.9 1969.93C1155.22 1967.25 1152.04 1965.12 1148.53 1963.67C1145.03 1962.22 1141.27 1961.47 1137.48 1961.47ZM604.33 2626.65L595.307 2617.63L604.33 2608.6C605.895 2607.04 606.774 2604.92 606.774 2602.7C606.774 2600.49 605.895 2598.37 604.33 2596.8C602.765 2595.24 600.643 2594.36 598.43 2594.36C596.218 2594.36 594.095 2595.24 592.53 2596.8L583.507 2605.83L574.484 2596.8C572.919 2595.24 570.797 2594.36 568.584 2594.36C566.371 2594.36 564.249 2595.24 562.684 2596.8C561.119 2598.37 560.24 2600.49 560.24 2602.7C560.24 2604.92 561.119 2607.04 562.684 2608.6L571.707 2617.63L562.684 2626.65C561.119 2628.21 560.24 2630.34 560.24 2632.55C560.24 2634.76 561.119 2636.88 562.684 2638.45C564.249 2640.01 566.371 2640.89 568.584 2640.89C570.797 2640.89 572.919 2640.01 574.484 2638.45L583.507 2629.43L592.53 2638.45C594.095 2640.01 596.218 2640.89 598.43 2640.89C600.643 2640.89 602.765 2640.01 604.33 2638.45C605.895 2636.88 606.774 2634.76 606.774 2632.55C606.774 2630.34 605.895 2628.21 604.33 2626.65Z" fill="#F9B5FF"/>
<path d="M1437.14 512.193C1437.14 509.678 1436.39 507.22 1434.97 505.143C1433.55 503.066 1431.54 501.467 1429.19 500.558C1408.64 492.789 1389.98 480.737 1374.44 465.202C1358.91 449.667 1346.86 431.005 1339.09 410.454C1338.18 408.109 1336.58 406.095 1334.5 404.676C1332.42 403.258 1329.97 402.502 1327.45 402.508C1324.94 402.502 1322.48 403.258 1320.4 404.676C1318.32 406.095 1316.73 408.109 1315.82 410.454C1308.05 431.005 1296 449.667 1280.46 465.202C1264.93 480.737 1246.26 492.789 1225.71 500.558C1223.37 501.467 1221.35 503.066 1219.93 505.143C1218.52 507.22 1217.76 509.678 1217.77 512.193C1217.76 514.708 1218.52 517.166 1219.93 519.243C1221.35 521.321 1223.37 522.919 1225.71 523.829C1246.26 531.597 1264.93 543.649 1280.46 559.184C1296 574.719 1308.05 593.382 1315.82 613.932C1316.73 616.277 1318.32 618.291 1320.4 619.71C1322.48 621.128 1324.94 621.885 1327.45 621.879C1329.97 621.885 1332.42 621.128 1334.5 619.71C1336.58 618.292 1338.18 616.277 1339.09 613.932C1346.86 593.382 1358.91 574.719 1374.44 559.184C1389.98 543.649 1408.64 531.597 1429.19 523.829C1431.53 522.919 1433.55 521.321 1434.97 519.243C1436.39 517.166 1437.14 514.708 1437.14 512.193ZM3296.6 1437.05C3296.61 1434.53 3295.85 1432.07 3294.43 1430C3293.01 1427.92 3291 1426.32 3288.65 1425.41C3268.1 1417.64 3249.44 1405.59 3233.9 1390.05C3218.37 1374.52 3206.32 1355.86 3198.55 1335.31C3197.64 1332.96 3196.04 1330.95 3193.96 1329.53C3191.89 1328.11 3189.43 1327.35 3186.91 1327.36C3184.4 1327.35 3181.94 1328.11 3179.86 1329.53C3177.79 1330.95 3176.19 1332.96 3175.28 1335.31C3167.51 1355.86 3155.46 1374.52 3139.92 1390.05C3124.39 1405.59 3105.73 1417.64 3085.17 1425.41C3082.83 1426.32 3080.82 1427.92 3079.4 1430C3077.98 1432.07 3077.22 1434.53 3077.23 1437.05C3077.22 1439.56 3077.98 1442.02 3079.4 1444.1C3080.82 1446.17 3082.83 1447.77 3085.17 1448.68C3105.73 1456.45 3124.39 1468.5 3139.92 1484.04C3155.46 1499.57 3167.51 1518.23 3175.28 1538.78C3176.19 1541.13 3177.79 1543.14 3179.86 1544.56C3181.94 1545.98 3184.4 1546.74 3186.91 1546.73C3189.43 1546.74 3191.89 1545.98 3193.96 1544.56C3196.04 1543.14 3197.64 1541.13 3198.55 1538.78C3206.32 1518.23 3218.37 1499.57 3233.9 1484.04C3249.44 1468.5 3268.1 1456.45 3288.65 1448.68C3291 1447.77 3293.01 1446.17 3294.43 1444.1C3295.85 1442.02 3296.61 1439.56 3296.6 1437.05Z" fill="#E20CCE"/>
<path d="M1365.79 2049.83V2243.41V2263.22H1537.33H1919.22V2049.83H1365.79Z" fill="white" stroke="#E20CCE" stroke-width="12.8366" stroke-linecap="round" stroke-linejoin="round"/>
<path d="M983.9 2243.41V2456.8L1365.79 2263.22V2243.41V2049.83L983.9 2243.41Z" fill="white" stroke="#E20CCE" stroke-width="12.8366" stroke-linecap="round" stroke-linejoin="round"/>
<path d="M1537.32 2263.22H1365.79L983.9 2456.8H1537.32L1919.21 2263.22H1537.32Z" fill="#F9B5FF" stroke="#E20CCE" stroke-width="12.8366" stroke-linecap="round" stroke-linejoin="round"/>
<path d="M1214.54 2196.51C1213.67 2204.18 1211.03 2211.54 1206.81 2218C1202.6 2224.47 1196.94 2229.86 1190.28 2233.75" stroke="#E20CCE" stroke-width="12.8366" stroke-linecap="round" stroke-linejoin="round"/>
<path d="M2564.26 889.061H1385.47C1289.23 889.061 1211.21 967.083 1211.21 1063.33V2191.03C1211.21 2287.28 1289.23 2365.3 1385.47 2365.3H2564.26C2660.5 2365.3 2738.52 2287.28 2738.52 2191.03V1063.33C2738.52 967.083 2660.5 889.061 2564.26 889.061Z" fill="#F9B5FF"/>
<path d="M2564.26 889.061H1385.47C1289.23 889.061 1211.21 967.083 1211.21 1063.33V2191.03C1211.21 2287.28 1289.23 2365.3 1385.47 2365.3H2564.26C2660.5 2365.3 2738.52 2287.28 2738.52 2191.03V1063.33C2738.52 967.083 2660.5 889.061 2564.26 889.061Z" stroke="#E20CCE" stroke-width="12.8366" stroke-linecap="round" stroke-linejoin="round"/>
<path d="M2560.61 704.236C2560.62 701.362 2560.77 698.491 2561.08 695.633H2052.99C2053.02 705.914 2051.02 716.1 2047.11 725.608C2043.2 735.116 2037.45 743.758 2030.2 751.04C2022.94 758.322 2014.31 764.099 2004.82 768.041C1995.33 771.984 1985.15 774.013 1974.86 774.013C1964.58 774.013 1954.4 771.984 1944.91 768.041C1935.41 764.099 1926.79 758.322 1919.53 751.04C1912.28 743.758 1906.53 735.116 1902.62 725.608C1898.7 716.1 1896.71 705.914 1896.74 695.633H1388.65C1388.96 698.491 1389.11 701.362 1389.12 704.236C1389.15 725.718 1380.64 746.331 1365.47 761.54C1350.29 776.749 1329.7 785.308 1308.22 785.334V1923.96H2641.51V785.334C2620.03 785.308 2599.43 776.748 2584.26 761.539C2569.09 746.331 2560.58 725.718 2560.61 704.236Z" fill="white"/>
<mask id="mask0_186_183" style="mask-type:luminance" maskUnits="userSpaceOnUse" x="1308" y="695" width="1334" height="1229">
<path d="M2560.61 704.238C2560.62 701.364 2560.77 698.492 2561.08 695.635H2052.99C2053.02 705.916 2051.02 716.102 2047.11 725.61C2043.2 735.118 2037.45 743.76 2030.2 751.042C2022.94 758.324 2014.31 764.101 2004.82 768.043C1995.33 771.985 1985.15 774.015 1974.86 774.015C1964.58 774.015 1954.4 771.985 1944.91 768.043C1935.41 764.101 1926.79 758.324 1919.53 751.042C1912.28 743.76 1906.53 735.118 1902.62 725.61C1898.7 716.102 1896.71 705.916 1896.74 695.635H1388.65C1388.96 698.492 1389.11 701.364 1389.12 704.238C1389.15 725.72 1380.64 746.333 1365.47 761.542C1350.29 776.751 1329.7 785.31 1308.22 785.336V1923.96H2641.51V785.336C2620.03 785.31 2599.43 776.75 2584.26 761.541C2569.09 746.333 2560.58 725.72 2560.61 704.238Z" fill="white"/>
</mask>
<g mask="url(#mask0_186_183)">
<path d="M2738.52 627.033L674.061 2214.86L2578.52 2044.24L2931.94 744.946" fill="#FEEFFF"/>
<path d="M2673.97 1342.8C2616.17 1336.81 2558.88 1356.27 2518.4 1395.88C2413.35 1498.65 2228.4 1556.2 2025.19 1535.15C1821.98 1514.1 1652.68 1419.85 1570.81 1297.71C1539.27 1250.65 1487.15 1219.85 1429.36 1213.87H1429.35C1327.9 1203.36 1237.52 1273.69 1227.49 1370.95L1110.21 2508.74C1100.18 2606.01 1174.3 2693.37 1275.76 2703.88L2520.38 2832.82C2621.83 2843.33 2712.21 2773 2722.24 2675.74L2839.52 1537.95C2849.54 1440.68 2775.42 1353.31 2673.97 1342.8Z" fill="#FEEFFF"/>
</g>
<path d="M2560.61 704.236C2560.62 701.362 2560.77 698.491 2561.08 695.633H2052.99C2053.02 705.914 2051.02 716.1 2047.11 725.608C2043.2 735.116 2037.45 743.758 2030.2 751.04C2022.94 758.322 2014.31 764.099 2004.82 768.041C1995.33 771.984 1985.15 774.013 1974.86 774.013C1964.58 774.013 1954.4 771.984 1944.91 768.041C1935.41 764.099 1926.79 758.322 1919.53 751.04C1912.28 743.758 1906.53 735.116 1902.62 725.608C1898.7 716.1 1896.71 705.914 1896.74 695.633H1388.65C1388.96 698.491 1389.11 701.362 1389.12 704.236C1389.15 725.718 1380.64 746.331 1365.47 761.54C1350.29 776.749 1329.7 785.308 1308.22 785.334V1923.96H2641.51V785.334C2620.03 785.308 2599.43 776.748 2584.26 761.539C2569.09 746.331 2560.58 725.718 2560.61 704.236Z" stroke="#E20CCE" stroke-width="12.8366" stroke-linecap="round" stroke-linejoin="round"/>
<path d="M1373.03 1858.99V835.044C1404.38 819.338 1429.07 792.932 1442.65 760.602H1847.49C1859.41 784.156 1877.62 803.946 1900.1 817.771C1922.59 831.597 1948.47 838.916 1974.87 838.916C2001.26 838.916 2027.14 831.597 2049.63 817.771C2072.11 803.946 2090.32 784.156 2102.24 760.602H2507.09C2520.66 792.931 2545.35 819.337 2576.7 835.044V1858.99H1373.03Z" fill="white" stroke="#E20CCE" stroke-width="12.8366" stroke-linecap="round" stroke-linejoin="round"/>
<path d="M2564.47 1309.8C2537.42 1309.78 2510.72 1315.88 2486.36 1327.62C2462 1339.36 2440.6 1356.46 2423.76 1377.62C2335.22 1489.04 2167.4 1564.24 1974.87 1564.24C1782.34 1564.24 1614.52 1489.04 1525.97 1377.62C1509.13 1356.46 1487.74 1339.36 1463.37 1327.62C1439.01 1315.88 1412.31 1309.78 1385.26 1309.8H1385.26C1289.13 1309.8 1211.21 1387.92 1211.21 1484.28V2611.55C1211.21 2707.92 1289.13 2786.04 1385.26 2786.04H2564.47C2660.6 2786.04 2738.52 2707.92 2738.52 2611.55V1484.28C2738.52 1387.92 2660.6 1309.8 2564.47 1309.8Z" fill="white"/>
<mask id="mask1_186_183" style="mask-type:luminance" maskUnits="userSpaceOnUse" x="1211" y="1309" width="1528" height="1478">
<path d="M2564.47 1309.8C2537.42 1309.78 2510.72 1315.88 2486.36 1327.62C2461.99 1339.37 2440.6 1356.46 2423.76 1377.63C2335.21 1489.04 2167.39 1564.24 1974.86 1564.24C1782.33 1564.24 1614.51 1489.04 1525.97 1377.63C1509.13 1356.46 1487.73 1339.37 1463.37 1327.62C1439.01 1315.88 1412.31 1309.78 1385.26 1309.8H1385.26C1289.13 1309.8 1211.2 1387.92 1211.2 1484.29V2611.55C1211.2 2707.92 1289.13 2786.04 1385.25 2786.04H2564.47C2660.6 2786.04 2738.52 2707.92 2738.52 2611.55V1484.29C2738.52 1387.92 2660.6 1309.8 2564.47 1309.8Z" fill="white"/>
</mask>
<g mask="url(#mask1_186_183)">
<path d="M2982.15 2198.73C2721.18 3078.64 1087.66 2845.94 1087.66 2845.94L2825.44 3029.85L3027.55 2272.13" fill="#FEEFFF"/>
</g>
<path d="M2564.47 1309.8C2537.42 1309.78 2510.72 1315.88 2486.36 1327.62C2462 1339.36 2440.6 1356.46 2423.76 1377.62C2335.22 1489.04 2167.4 1564.24 1974.87 1564.24C1782.34 1564.24 1614.52 1489.04 1525.97 1377.62C1509.13 1356.46 1487.74 1339.36 1463.37 1327.62C1439.01 1315.88 1412.31 1309.78 1385.26 1309.8H1385.26C1289.13 1309.8 1211.21 1387.92 1211.21 1484.28V2611.55C1211.21 2707.92 1289.13 2786.04 1385.26 2786.04H2564.47C2660.6 2786.04 2738.52 2707.92 2738.52 2611.55V1484.28C2738.52 1387.92 2660.6 1309.8 2564.47 1309.8Z" stroke="#E20CCE" stroke-width="12.8366" stroke-linecap="round" stroke-linejoin="round"/>
<path d="M1385.26 2721.07C1325.02 2721.07 1276.01 2671.94 1276.01 2611.55V1484.28C1276.01 1423.9 1325.02 1374.77 1385.26 1374.77C1402.56 1374.71 1419.66 1378.58 1435.25 1386.08C1450.85 1393.59 1464.53 1404.54 1475.28 1418.11C1578.76 1548.32 1770.19 1629.21 1974.86 1629.21C2179.53 1629.21 2370.96 1548.32 2474.45 1418.11C2485.19 1404.54 2498.88 1393.59 2514.47 1386.08C2530.07 1378.58 2547.16 1374.71 2564.47 1374.77C2624.7 1374.77 2673.72 1423.9 2673.72 1484.28V2611.55C2673.72 2671.94 2624.71 2721.07 2564.47 2721.07H1385.26Z" fill="white"/>
<path d="M1210.67 2493.28C1233.23 2785.44 1591.31 2417.24 1873.1 2677.27H1989.36V2751.29L1873.1 2726.94C1586.89 2443.54 1234.8 2819.45 1196.38 2693.83L1210.67 2493.28Z" fill="white"/>
<mask id="mask2_186_183" style="mask-type:luminance" maskUnits="userSpaceOnUse" x="1196" y="2493" width="794" height="259">
<path d="M1210.67 2493.28C1233.23 2785.44 1591.31 2417.25 1873.1 2677.27H1989.36V2751.29L1873.1 2726.94C1586.89 2443.54 1234.8 2819.46 1196.38 2693.83L1210.67 2493.28Z" fill="white"/>
</mask>
<g mask="url(#mask2_186_183)">
<path d="M1288.17 2751.29L1325.93 2695.02L1361.54 2663.32C1396.19 2632.47 1440.59 2612.29 1488.51 2605.94C1587.74 2592.79 1759.16 2587.13 1873.1 2677.27" fill="#FEEFFF"/>
</g>
<path d="M1210.67 2493.28C1233.23 2785.44 1591.31 2417.24 1873.1 2677.27H1989.36V2751.29L1873.1 2726.94C1586.89 2443.54 1234.8 2819.45 1196.38 2693.83L1210.67 2493.28Z" stroke="#E20CCE" stroke-width="12.8366" stroke-linecap="round" stroke-linejoin="round"/>
<path d="M2739.06 2493.28C2716.5 2785.44 2358.42 2417.24 2076.63 2677.27H1960.37V2751.29L2076.63 2726.94C2362.84 2443.54 2714.92 2819.45 2753.35 2693.83L2739.06 2493.28Z" fill="white"/>
<mask id="mask3_186_183" style="mask-type:luminance" maskUnits="userSpaceOnUse" x="1960" y="2493" width="794" height="259">
<path d="M2739.07 2493.28C2716.51 2785.44 2358.42 2417.25 2076.63 2677.27H1960.38V2751.29L2076.63 2726.94C2362.84 2443.54 2714.93 2819.46 2753.35 2693.83L2739.07 2493.28Z" fill="white"/>
</mask>
<g mask="url(#mask3_186_183)">
<path d="M2661.56 2751.29L2623.8 2695.02L2588.19 2663.32C2553.54 2632.47 2509.14 2612.29 2461.22 2605.94C2361.99 2592.79 2190.57 2587.13 2076.63 2677.27" fill="#FEEFFF"/>
</g>
<path d="M2739.06 2493.28C2716.5 2785.44 2358.42 2417.24 2076.63 2677.27H1960.37V2751.29L2076.63 2726.94C2362.84 2443.54 2714.92 2819.45 2753.35 2693.83L2739.06 2493.28Z" stroke="#E20CCE" stroke-width="12.8366" stroke-linecap="round" stroke-linejoin="round"/>
<path d="M2404.54 1824.12H1545.19C1481.25 1824.12 1429.42 1875.95 1429.42 1939.89V1940.18C1429.42 2004.12 1481.25 2055.95 1545.19 2055.95H2404.54C2468.48 2055.95 2520.31 2004.12 2520.31 1940.18V1939.89C2520.31 1875.95 2468.48 1824.12 2404.54 1824.12Z" fill="white"/>
<mask id="mask4_186_183" style="mask-type:luminance" maskUnits="userSpaceOnUse" x="1429" y="1824" width="1092" height="232">
<path d="M2404.54 1824.12H1545.19C1481.25 1824.12 1429.42 1875.96 1429.42 1939.9V1940.18C1429.42 2004.12 1481.25 2055.96 1545.19 2055.96H2404.54C2468.48 2055.96 2520.31 2004.12 2520.31 1940.18V1939.9C2520.31 1875.96 2468.48 1824.12 2404.54 1824.12Z" fill="white"/>
</mask>
<g mask="url(#mask4_186_183)">
<path d="M1158.52 1958.35C1126.25 1830.83 2694.84 2131.05 2404.68 1824.12C2114.53 1517.19 2692.17 1898.38 2692.17 1898.38L2724.57 2210.41L1998.15 2283.37L1638.39 2224.75" fill="#FEEFFF"/>
</g>
<path d="M2404.54 1824.12H1545.19C1481.25 1824.12 1429.42 1875.95 1429.42 1939.89V1940.18C1429.42 2004.12 1481.25 2055.95 1545.19 2055.95H2404.54C2468.48 2055.95 2520.31 2004.12 2520.31 1940.18V1939.89C2520.31 1875.95 2468.48 1824.12 2404.54 1824.12Z" stroke="#E20CCE" stroke-width="12.8366" stroke-linecap="round" stroke-linejoin="round"/>
<path d="M2220.98 2778.45C2184.36 2778.45 2150.07 2758.5 2130.23 2725.11C2097.3 2669.69 2040.04 2633 1974.86 2633C1909.69 2633 1852.42 2669.69 1819.5 2725.11C1799.66 2758.5 1765.37 2778.45 1728.75 2778.45C1723.74 2778.45 1719.69 2782.85 1719.69 2788.28V2789.08H2230.04V2788.28C2230.04 2782.85 2225.98 2778.45 2220.98 2778.45Z" fill="white"/>
<mask id="mask5_186_183" style="mask-type:luminance" maskUnits="userSpaceOnUse" x="1719" y="2633" width="512" height="157">
<path d="M2220.98 2778.45C2184.36 2778.45 2150.07 2758.5 2130.23 2725.11C2097.3 2669.69 2040.04 2633 1974.86 2633C1909.69 2633 1852.42 2669.69 1819.5 2725.11C1799.66 2758.5 1765.37 2778.45 1728.75 2778.45C1723.74 2778.45 1719.69 2782.85 1719.69 2788.28V2789.08H2230.04V2788.28C2230.04 2782.85 2225.98 2778.45 2220.98 2778.45Z" fill="white"/>
</mask>
<g mask="url(#mask5_186_183)">
<path d="M2161.44 2789.75C2133.68 2789.75 2107.68 2772.21 2092.65 2742.86C2067.68 2694.14 2024.27 2661.89 1974.86 2661.89C1925.46 2661.89 1882.05 2694.14 1857.08 2742.86C1842.05 2772.21 1816.05 2789.75 1788.29 2789.75C1784.5 2789.75 1781.42 2793.62 1781.42 2798.39V2799.09H2168.31V2798.39C2168.31 2793.62 2165.23 2789.75 2161.44 2789.75Z" fill="#FEEFFF"/>
</g>
<path d="M1808.03 1021.76L1752.1 1071.86M2526.58 1693.09C2528.84 1702.95 2528.84 1713.19 2526.56 1723.05C2524.29 1732.91 2519.81 1742.12 2513.45 1749.98M1750.73 2371.68C1712.52 2392.17 1672.49 2409.07 1631.16 2422.15M2220.98 2778.45C2184.36 2778.45 2150.07 2758.5 2130.23 2725.11C2097.3 2669.69 2040.04 2633 1974.86 2633C1909.69 2633 1852.42 2669.69 1819.5 2725.11C1799.66 2758.5 1765.37 2778.45 1728.75 2778.45C1723.74 2778.45 1719.69 2782.85 1719.69 2788.28V2789.08H2230.04V2788.28C2230.04 2782.85 2225.98 2778.45 2220.98 2778.45Z" stroke="#E20CCE" stroke-width="12.8366" stroke-linecap="round" stroke-linejoin="round"/>
<path d="M2861.05 960.84L2480.73 1186.45L2419.66 820.876L2799.98 595.27L2861.05 960.84Z" fill="#F9B5FF" stroke="#E20CCE" stroke-width="12.8366" stroke-linecap="round" stroke-linejoin="round"/>
<path d="M2861.05 960.84L3147.47 1178.97L2767.15 1404.58L2480.73 1186.45L2861.05 960.84Z" fill="white" stroke="#E20CCE" stroke-width="12.8366" stroke-linecap="round" stroke-linejoin="round"/>
<path d="M2799.98 595.27L3086.4 813.398L3147.47 1178.97L2861.05 960.84L2799.98 595.27Z" fill="white" stroke="#E20CCE" stroke-width="12.8366" stroke-linecap="round" stroke-linejoin="round"/>
<path d="M2682.18 887.156L2639.85 929.597" stroke="#E20CCE" stroke-width="12.8366" stroke-linecap="round" stroke-linejoin="round"/>
<path d="M732.006 1419.97L714.506 1425.31L539.526 1478.64L531.512 1654.7L1954.08 1310.45L732.006 1419.97Z" fill="#F9B5FF" stroke="#E20CCE" stroke-width="12.8366" stroke-linecap="round" stroke-linejoin="round"/>
<path d="M539.527 1478.64L870.09 1313.6L1954.08 1310.45L539.527 1478.64Z" fill="white" stroke="#E20CCE" stroke-width="12.8366" stroke-linecap="round" stroke-linejoin="round"/>
<path d="M1333.16 1258.19C1337.55 1259.64 1420.58 1347.06 1498.89 1368.34C1551.29 1382.57 1610.92 1373.88 1610.92 1373.88L1390.58 1418.72L1231.64 1336.28L1333.16 1258.19Z" fill="white"/>
<mask id="mask6_186_183" style="mask-type:luminance" maskUnits="userSpaceOnUse" x="1231" y="1258" width="380" height="161">
<path d="M1333.16 1258.19C1337.55 1259.64 1420.58 1347.06 1498.89 1368.34C1551.28 1382.57 1610.91 1373.88 1610.91 1373.88L1390.58 1418.72L1231.64 1336.28L1333.16 1258.19Z" fill="white"/>
</mask>
<g mask="url(#mask6_186_183)">
<path d="M1365.3 1408.2C1307.58 1378.99 1368.85 1326.74 1373.92 1294.06C1378.99 1261.39 1309.18 1317.59 1309.18 1317.59L1279.31 1357.76" fill="#FEEFFF"/>
</g>
<path d="M1333.16 1258.19C1337.55 1259.64 1420.58 1347.06 1498.89 1368.34C1551.29 1382.57 1610.92 1373.88 1610.92 1373.88L1390.58 1418.72L1231.64 1336.28L1333.16 1258.19Z" stroke="#E20CCE" stroke-width="12.8366" stroke-linecap="round" stroke-linejoin="round"/>
<path d="M1379.43 1271C1379.43 1271 1379.58 1323.28 1295.58 1388.74C1279.19 1401.52 922.453 1133.3 922.453 1133.3L1095.53 974.639C1095.53 974.639 1232.7 1125.98 1379.43 1271Z" fill="#F9B5FF"/>
<mask id="mask7_186_183" style="mask-type:luminance" maskUnits="userSpaceOnUse" x="922" y="974" width="458" height="416">
<path d="M1379.43 1271C1379.43 1271 1379.58 1323.28 1295.58 1388.75C1279.19 1401.52 922.453 1133.3 922.453 1133.3L1095.53 974.641C1095.53 974.641 1232.7 1125.98 1379.43 1271Z" fill="white"/>
</mask>
<g mask="url(#mask7_186_183)">
<path d="M1336.81 1196.18C1330.04 1284.62 1208.07 1377.31 1208.07 1377.31Z" fill="#F9B5FF"/>
<path d="M1336.81 1196.18C1330.04 1284.62 1208.07 1377.31 1208.07 1377.31" stroke="#E20CCE" stroke-width="12.8366" stroke-linecap="round" stroke-linejoin="round"/>
</g>
<path d="M1379.43 1271C1379.43 1271 1379.58 1323.28 1295.58 1388.74C1279.19 1401.52 922.453 1133.3 922.453 1133.3L1095.53 974.639C1095.53 974.639 1232.7 1125.98 1379.43 1271Z" stroke="#E20CCE" stroke-width="12.8366" stroke-linecap="round" stroke-linejoin="round"/>
<path d="M1115.1 790.707C1113.51 816.504 1087.17 941.58 1105.35 974.611L982.096 950.01L999.706 780.783L1115.1 790.707Z" fill="white"/>
<mask id="mask8_186_183" style="mask-type:luminance" maskUnits="userSpaceOnUse" x="982" y="780" width="134" height="195">
<path d="M1115.1 790.705C1113.51 816.502 1087.17 941.578 1105.35 974.609L982.094 950.008L999.705 780.781L1115.1 790.705Z" fill="white"/>
</mask>
<g mask="url(#mask8_186_183)">
<path d="M1053.53 842.302C1116.58 873.155 1048.7 905.135 1107.24 935.386C1159.55 962.418 1148.88 821.322 1148.88 821.322L1051.65 782.57L1027.96 790.78" fill="#FEEFFF"/>
</g>
<path d="M1115.1 790.707C1113.51 816.504 1087.17 941.58 1105.35 974.611L982.096 950.01L999.706 780.783L1115.1 790.707Z" stroke="#E20CCE" stroke-width="12.8366" stroke-linecap="round" stroke-linejoin="round"/>
<path d="M981.823 855.99L1104.46 918.995L1115.66 985.171L964.42 919.275L981.823 855.99Z" fill="white" stroke="#E20CCE" stroke-width="12.8366" stroke-linecap="round" stroke-linejoin="round"/>
<path d="M964.085 905.381C964.085 905.381 1058.57 964.941 1115.57 953.779C1115.57 953.779 1212.05 1446.17 1367.86 1465.51L775.975 1539.68C775.975 1539.68 811.159 958.564 964.085 905.381Z" fill="#F9B5FF"/>
<path d="M964.085 905.381C964.085 905.381 1058.57 964.941 1115.57 953.779C1115.57 953.779 1212.05 1446.17 1367.86 1465.51L775.975 1539.68C775.975 1539.68 811.159 958.564 964.085 905.381Z" stroke="#E20CCE" stroke-width="12.8366" stroke-linecap="round" stroke-linejoin="round"/>
<path d="M1349.43 772.338L1346.71 803.607L1545.42 820.933L1548.15 789.664L1349.43 772.338Z" fill="#F9B5FF" stroke="#E20CCE" stroke-width="12.8366" stroke-linecap="round" stroke-linejoin="round"/>
<path d="M1548.14 789.709L1545.42 820.978L1588.08 813.557C1594.07 812.514 1594.6 806.507 1588.87 804.437L1548.14 789.709Z" fill="white"/>
<mask id="mask9_186_183" style="mask-type:luminance" maskUnits="userSpaceOnUse" x="1545" y="789" width="48" height="32">
<path d="M1548.14 789.707L1545.42 820.976L1588.08 813.555C1594.07 812.512 1594.6 806.505 1588.87 804.435L1548.14 789.707Z" fill="white"/>
</mask>
<g mask="url(#mask9_186_183)">
<path d="M1602.37 878.479C1618.66 878.431 1631.8 855.775 1631.72 827.874C1631.64 799.973 1618.37 777.393 1602.08 777.44C1585.79 777.487 1572.65 800.144 1572.73 828.045C1572.81 855.946 1586.08 878.526 1602.37 878.479Z" fill="#F9B5FF" stroke="#E20CCE" stroke-width="12.8366" stroke-linecap="round" stroke-linejoin="round"/>
</g>
<path d="M1548.14 789.709L1545.42 820.978L1588.08 813.557C1594.07 812.514 1594.6 806.507 1588.87 804.437L1548.14 789.709Z" stroke="#E20CCE" stroke-width="12.8366" stroke-linecap="round" stroke-linejoin="round"/>
<path d="M1322.6 792.278L1323.74 779.226C1323.95 776.811 1325.11 774.577 1326.97 773.018C1328.83 771.459 1331.23 770.701 1333.64 770.912L1349.44 772.289L1346.71 803.558L1330.92 802.181C1328.5 801.97 1326.27 800.809 1324.71 798.952C1323.15 797.095 1322.39 794.694 1322.6 792.278Z" fill="#F9B5FF" stroke="#E20CCE" stroke-width="12.8366" stroke-linecap="round" stroke-linejoin="round"/>
<path d="M1327.43 934.34C1370.62 885.254 1363.87 824.372 1389.99 800.787C1416.11 777.202 1465.67 759.148 1469.45 768.52C1473.24 777.892 1469.03 778.38 1469.03 778.38C1469.03 778.38 1490.58 781.103 1477.31 798.295C1477.31 798.295 1482.25 804.141 1477.37 811.908C1477.37 811.908 1490.51 818.423 1483.52 826.903C1476.53 835.383 1460.17 861.859 1455.87 875.609C1439.53 927.807 1348.74 1040.53 1348.74 1040.53L1327.43 934.34Z" fill="white"/>
<mask id="mask10_186_183" style="mask-type:luminance" maskUnits="userSpaceOnUse" x="1327" y="765" width="159" height="276">
<path d="M1327.43 934.342C1370.62 885.256 1363.87 824.374 1389.99 800.789C1416.11 777.204 1465.67 759.15 1469.45 768.522C1473.24 777.894 1469.03 778.382 1469.03 778.382C1469.03 778.382 1490.58 781.105 1477.31 798.297C1477.31 798.297 1482.25 804.143 1477.37 811.91C1477.37 811.91 1490.51 818.425 1483.52 826.905C1476.53 835.385 1460.17 861.861 1455.87 875.611C1439.53 927.809 1348.74 1040.53 1348.74 1040.53L1327.43 934.342Z" fill="white"/>
</mask>
<g mask="url(#mask10_186_183)">
<path d="M1439.25 917.895C1388.24 966.977 1361 903.396 1342.78 903.449C1324.55 903.502 1348.81 957.071 1348.81 957.071L1388.3 987.683L1445.28 970.615" fill="#FEEFFF"/>
</g>
<path d="M1327.43 934.34C1370.62 885.254 1363.87 824.372 1389.99 800.787C1416.11 777.202 1465.67 759.148 1469.45 768.52C1473.24 777.892 1469.03 778.38 1469.03 778.38C1469.03 778.38 1490.58 781.103 1477.31 798.295C1477.31 798.295 1482.25 804.141 1477.37 811.908C1477.37 811.908 1490.51 818.423 1483.52 826.903C1476.53 835.383 1460.17 861.859 1455.87 875.609C1439.53 927.807 1348.74 1040.53 1348.74 1040.53L1327.43 934.34Z" stroke="#E20CCE" stroke-width="12.8366" stroke-linecap="round" stroke-linejoin="round"/>
<path d="M1047.99 974.777C1047.99 974.777 1184.14 1157.41 1327.36 912.273L1420.21 984.285C1420.21 984.285 1379.59 1325.74 1039.83 1179.47" fill="#F9B5FF"/>
<mask id="mask11_186_183" style="mask-type:luminance" maskUnits="userSpaceOnUse" x="1039" y="912" width="382" height="304">
<path d="M1048 974.779C1048 974.779 1184.15 1157.41 1327.37 912.275L1420.21 984.287C1420.21 984.287 1379.59 1325.74 1039.83 1179.47" fill="white"/>
</mask>
<g mask="url(#mask11_186_183)">
<path d="M1262.04 950.602C1327.37 969.863 1407.13 1096.95 1407.13 1096.95Z" fill="#F9B5FF"/>
<path d="M1262.04 950.602C1327.37 969.863 1407.13 1096.95 1407.13 1096.95" stroke="#E20CCE" stroke-width="12.8366" stroke-linecap="round" stroke-linejoin="round"/>
</g>
<path d="M1047.99 974.777C1047.99 974.777 1184.14 1157.41 1327.36 912.273L1420.21 984.285C1420.21 984.285 1379.59 1325.74 1039.83 1179.47" stroke="#E20CCE" stroke-width="12.8366" stroke-linecap="round" stroke-linejoin="round"/>
<path d="M989.686 759.455L1102.71 676.059C1102.71 676.059 1193.61 826.492 1123 855.581C1110.66 860.664 1083.05 861.798 1054.73 848.182" fill="white"/>
<path d="M989.686 759.455L1102.71 676.059C1102.71 676.059 1193.61 826.492 1123 855.581C1110.66 860.664 1083.05 861.798 1054.73 848.182" stroke="#E20CCE" stroke-width="12.8366" stroke-linecap="round" stroke-linejoin="round"/>
<path d="M1125.09 649.042C1122.56 649.055 1120.04 649.348 1117.57 649.914C1117.7 648.864 1117.76 647.809 1117.76 646.752C1117.77 642.93 1116.97 639.149 1115.41 635.66C1113.85 632.17 1111.57 629.05 1108.72 626.507C1105.87 623.963 1102.51 622.053 1098.86 620.903C1095.22 619.752 1091.37 619.387 1087.57 619.832C1087.51 615.014 1086.43 610.263 1084.41 605.888C1082.39 601.513 1079.47 597.611 1075.85 594.434C1072.22 591.257 1067.97 588.877 1063.37 587.446C1058.77 586.016 1053.92 585.567 1049.13 586.13C1044.35 586.693 1039.73 588.254 1035.59 590.713C1031.44 593.172 1027.86 596.474 1025.07 600.404C1022.29 604.335 1020.35 608.807 1019.4 613.532C1018.45 618.256 1018.51 623.127 1019.56 627.83C1019.29 627.823 1019.02 627.791 1018.75 627.792C1012.83 627.817 1007.08 629.779 1002.38 633.378C997.678 636.978 994.285 642.017 992.717 647.726C989.396 645.716 985.68 644.446 981.823 644.001C977.967 643.555 974.059 643.947 970.367 645.147C966.675 646.348 963.286 648.33 960.429 650.959C957.571 653.588 955.314 656.801 953.811 660.38C945.878 660.809 938.336 663.962 932.459 669.309C926.583 674.656 922.733 681.867 921.56 689.725C920.387 697.582 921.962 705.604 926.02 712.434C930.078 719.264 936.37 724.483 943.832 727.21C942.588 732.251 942.842 737.546 944.563 742.444C938.311 744.221 932.903 748.18 929.321 753.604C925.738 759.028 924.22 765.556 925.041 772.004C925.861 778.451 928.967 784.391 933.793 788.745C938.62 793.098 944.847 795.576 951.345 795.73C953.501 800.712 956.807 805.112 960.992 808.569C965.178 812.025 970.123 814.44 975.423 815.616C980.722 816.791 986.225 816.693 991.479 815.329C996.734 813.966 1001.59 811.376 1005.65 807.772C1012.41 805.61 1018.06 800.885 1021.38 794.608C1024.71 788.331 1025.44 781.003 1023.42 774.194C1027.05 773.336 1030.45 771.743 1033.43 769.514C1036.42 767.285 1038.91 764.467 1040.76 761.236C1042.6 758.004 1043.77 754.427 1044.18 750.727C1044.59 747.027 1044.23 743.282 1043.14 739.725C1051.65 739.041 1059.6 735.221 1065.45 729.005C1071.31 722.79 1074.64 714.622 1074.81 706.085C1079.05 709.137 1083.92 711.176 1089.07 712.046C1094.22 712.917 1099.49 712.595 1104.5 711.106C1108.87 714.38 1113.96 716.568 1119.34 717.489C1124.73 718.41 1130.26 718.038 1135.47 716.403C1140.68 714.768 1145.43 711.918 1149.33 708.087C1153.22 704.255 1156.15 699.553 1157.87 694.368C1159.59 689.183 1160.05 683.663 1159.22 678.263C1158.39 672.864 1156.29 667.739 1153.09 663.312C1149.88 658.885 1145.68 655.283 1140.81 652.802C1135.94 650.321 1130.55 649.032 1125.09 649.042Z" fill="#F9B5FF" stroke="#E20CCE" stroke-width="12.8366" stroke-linecap="round" stroke-linejoin="round"/>
<path d="M1014.67 816.337C1008.75 816.369 1002.94 814.642 997.998 811.374C993.053 808.106 989.189 803.444 986.895 797.979C984.601 792.514 983.98 786.491 985.11 780.673C986.241 774.855 989.072 769.503 993.246 765.294C997.42 761.086 1002.75 758.21 1008.56 757.032C1014.37 755.853 1020.39 756.424 1025.88 758.673C1031.36 760.922 1036.05 764.747 1039.36 769.665C1042.67 774.582 1044.45 780.371 1044.46 786.298" fill="white"/>
<path d="M1014.67 816.337C1008.75 816.369 1002.94 814.642 997.998 811.374C993.053 808.106 989.189 803.444 986.895 797.979C984.601 792.514 983.98 786.491 985.11 780.673C986.241 774.855 989.072 769.503 993.246 765.294C997.42 761.086 1002.75 758.21 1008.56 757.032C1014.37 755.853 1020.39 756.424 1025.88 758.673C1031.36 760.922 1036.05 764.747 1039.36 769.665C1042.67 774.582 1044.45 780.371 1044.46 786.298" stroke="#E20CCE" stroke-width="12.8366" stroke-linecap="round" stroke-linejoin="round"/>
<path d="M997.969 1332.74C1034.47 1347.96 1129.64 1320.57 1129.64 1320.57L1129.98 1437.07C1129.98 1437.07 1026.61 1478.52 998.298 1446.34L997.969 1332.74Z" fill="#F9B5FF" stroke="#E20CCE" stroke-width="12.8366" stroke-linecap="round" stroke-linejoin="round"/>
<path d="M462.584 1624.46L505.899 1982.15L1954.08 1310.45L462.584 1624.46Z" fill="white"/>
<mask id="mask12_186_183" style="mask-type:luminance" maskUnits="userSpaceOnUse" x="462" y="1310" width="1493" height="673">
<path d="M462.586 1624.46L505.901 1982.15L1954.08 1310.44L462.586 1624.46Z" fill="white"/>
</mask>
<g mask="url(#mask12_186_183)">
<path d="M464.056 2130.98C224.379 1687.9 1390.59 1418.72 1390.59 1418.72L539.528 1478.64L274.719 1655.45L224.514 1982.69" fill="#FEEFFF"/>
</g>
<path d="M462.584 1624.46L505.899 1982.15L1954.08 1310.45L462.584 1624.46Z" stroke="#E20CCE" stroke-width="12.8366" stroke-linecap="round" stroke-linejoin="round"/>
<path d="M13.7207 1823.71L450.487 1542.14C450.487 1542.14 1949.13 1310.49 1954.08 1310.45L13.7207 1823.71Z" fill="white"/>
<path d="M13.7207 1823.71L450.487 1542.14C450.487 1542.14 1949.13 1310.49 1954.08 1310.45L13.7207 1823.71Z" stroke="#E20CCE" stroke-width="12.8366" stroke-linecap="round" stroke-linejoin="round"/>
<path d="M1129.01 744.518C1163.46 752.868 1163.3 786.262 1141.29 785.966Z" fill="white"/>
<path d="M1129.01 744.518C1163.46 752.868 1163.3 786.262 1141.29 785.966" stroke="#E20CCE" stroke-width="12.8366" stroke-linecap="round" stroke-linejoin="round"/>
<g opacity="0.27">
<path d="M1090.07 792.539C1100.13 790.864 1107.28 783.477 1106.05 776.04C1104.81 768.604 1095.65 763.933 1085.59 765.608C1075.53 767.283 1068.37 774.669 1069.61 782.106C1070.85 789.543 1080.01 794.213 1090.07 792.539Z" fill="#FEEFFF"/>
</g>
<path d="M1101.7 795.117C1104.9 797.741 1108.6 799.702 1112.57 800.888Z" fill="white"/>
<path d="M1101.7 795.117C1104.9 797.741 1108.6 799.702 1112.57 800.888" stroke="#E20CCE" stroke-width="12.8366" stroke-linecap="round" stroke-linejoin="round"/>
<path d="M1021.39 779.097C1020.65 778.208 1019.72 777.495 1018.67 777.01C1017.61 776.524 1016.47 776.278 1015.31 776.289C1014.15 776.301 1013.01 776.569 1011.97 777.076C1010.93 777.582 1010.02 778.314 1009.29 779.217C1008.57 780.121 1008.06 781.174 1007.79 782.3C1007.52 783.426 1007.51 784.598 1007.75 785.73C1007.99 786.862 1008.48 787.926 1009.19 788.845C1009.89 789.764 1010.79 790.515 1011.82 791.044M1039.06 655.943C1038.73 660.945 1037.12 665.777 1034.37 669.97M883.627 1271.79C884.074 1274.84 885.301 1277.73 887.189 1280.18C889.077 1282.62 891.562 1284.54 894.406 1285.74M821.657 1728.36C772.583 1760.09 724.371 1793.1 677.021 1827.41M789.261 1533.85L761.074 1544.56M1522.48 1340.66L1554.28 1326.61M1049.5 1182.71C1272.02 1250.34 1336.74 1173.16 1336.74 1173.16M1207.75 1267.4C1215.8 1326.32 1288.1 1412.78 1288.1 1412.78M1138.06 1353.75L1092.2 1371.43M1229.79 1046.06L1236.85 1053.13M1081.62 1642.58L1072.21 1652.01M521.568 1590.54C519.145 1594.66 515.782 1598.16 511.755 1600.74C507.727 1603.32 503.147 1604.92 498.387 1605.4" stroke="#E20CCE" stroke-width="12.8366" stroke-linecap="round" stroke-linejoin="round"/>
<path d="M2614.58 1928.12H2614.58H2614.58Z" fill="white" stroke="#E20CCE" stroke-width="12.8366" stroke-linecap="round" stroke-linejoin="round"/>
<path d="M2614.58 1928.12H3004.09C3009.36 1928.1 3014.56 1926.97 3019.36 1924.82C3024.17 1922.67 3028.47 1919.53 3031.99 1915.62C3035.51 1911.7 3038.17 1907.1 3039.8 1902.09C3041.43 1897.09 3042 1891.79 3041.46 1886.56C3036.93 1839.31 3024.57 1793.14 3004.88 1749.95C3002.72 1745.17 2999.58 1740.89 2995.66 1737.4C2991.75 1733.91 2987.15 1731.28 2982.16 1729.67C2977.16 1728.07 2971.89 1727.52 2966.67 1728.08C2961.46 1728.64 2956.42 1730.28 2951.87 1732.9L2614.58 1928.12Z" fill="white" stroke="#E20CCE" stroke-width="12.8366" stroke-linecap="round" stroke-linejoin="round"/>
<path d="M2614.58 1928.12H2614.58H2614.58Z" fill="white" stroke="#E20CCE" stroke-width="12.8366" stroke-linecap="round" stroke-linejoin="round"/>
<path d="M2614.58 1928.12H2614.58H2614.58Z" fill="white" stroke="#E20CCE" stroke-width="12.8366" stroke-linecap="round" stroke-linejoin="round"/>
<path d="M2614.58 1928.12L2951.8 1732.94C2956.35 1730.29 2960.3 1726.72 2963.39 1722.46C2966.47 1718.19 2968.64 1713.33 2969.74 1708.18C2970.83 1703.03 2970.85 1697.71 2969.77 1692.56C2968.69 1687.41 2966.55 1682.54 2963.48 1678.26C2935.97 1639.72 2902.3 1605.96 2863.82 1578.36C2859.56 1575.28 2854.7 1573.13 2849.55 1572.05C2844.41 1570.97 2839.09 1570.99 2833.95 1572.09C2828.81 1573.19 2823.96 1575.36 2819.71 1578.46C2815.46 1581.55 2811.9 1585.5 2809.28 1590.06L2614.58 1928.12Z" fill="white"/>
<path d="M2614.58 1928.12L2951.8 1732.94C2956.35 1730.29 2960.3 1726.72 2963.39 1722.46C2966.47 1718.19 2968.64 1713.33 2969.74 1708.18C2970.83 1703.03 2970.85 1697.71 2969.77 1692.56C2968.69 1687.41 2966.55 1682.54 2963.48 1678.26C2935.97 1639.72 2902.3 1605.96 2863.82 1578.36C2859.56 1575.28 2854.7 1573.13 2849.55 1572.05C2844.41 1570.97 2839.09 1570.99 2833.95 1572.09C2828.81 1573.19 2823.96 1575.36 2819.71 1578.46C2815.46 1581.55 2811.9 1585.5 2809.28 1590.06L2614.58 1928.12Z" stroke="#E20CCE" stroke-width="12.8366" stroke-linecap="round" stroke-linejoin="round"/>
<path d="M2365.34 1578.36C2326.86 1605.96 2293.2 1639.72 2265.68 1678.26C2262.61 1682.54 2260.47 1687.41 2259.39 1692.56C2258.32 1697.71 2258.33 1703.03 2259.43 1708.18C2260.53 1713.33 2262.69 1718.19 2265.78 1722.46C2268.86 1726.72 2272.81 1730.29 2277.36 1732.94L2493.24 1857.89C2526.51 1877.14 2563.73 1839.83 2544.53 1806.48L2419.88 1590.06C2417.26 1585.5 2413.7 1581.55 2409.45 1578.46C2405.2 1575.36 2400.35 1573.19 2395.21 1572.09C2390.07 1570.98 2384.76 1570.97 2379.61 1572.05C2374.46 1573.13 2369.6 1575.28 2365.34 1578.36ZM2614.58 1928.12V1537.64C2614.58 1532.38 2613.47 1527.17 2611.33 1522.36C2609.19 1517.56 2606.06 1513.25 2602.16 1509.72C2598.25 1506.19 2593.65 1503.52 2588.65 1501.87C2583.65 1500.23 2578.36 1499.65 2573.12 1500.18C2525.97 1504.72 2479.91 1517.12 2436.85 1536.85C2432.07 1539.04 2427.81 1542.19 2424.33 1546.12C2420.84 1550.05 2418.22 1554.66 2416.62 1559.66C2415.01 1564.67 2414.48 1569.95 2415.03 1575.17C2415.59 1580.39 2417.23 1585.44 2419.85 1589.99L2614.58 1928.12L2614.58 1928.12Z" fill="white" stroke="#E20CCE" stroke-width="12.8366" stroke-linecap="round" stroke-linejoin="round"/>
<path d="M2792.31 1536.85C2749.25 1517.12 2703.19 1504.73 2656.04 1500.18C2650.81 1499.66 2645.52 1500.23 2640.52 1501.88C2635.51 1503.52 2630.91 1506.19 2627.01 1509.72C2623.1 1513.25 2619.98 1517.56 2617.84 1522.37C2615.7 1527.18 2614.59 1532.38 2614.58 1537.64V1787.66C2614.58 1826.17 2665.43 1839.83 2684.64 1806.48L2809.32 1589.99C2811.94 1585.44 2813.57 1580.39 2814.13 1575.17C2814.69 1569.95 2814.15 1564.67 2812.55 1559.67C2810.95 1554.67 2808.32 1550.05 2804.84 1546.12C2801.35 1542.2 2797.09 1539.04 2792.31 1536.85ZM2614.58 1928.12L2277.29 1732.9C2272.75 1730.28 2267.71 1728.64 2262.49 1728.08C2257.27 1727.53 2252 1728.07 2247.01 1729.67C2242.01 1731.28 2237.41 1733.91 2233.5 1737.4C2229.59 1740.9 2226.45 1745.17 2224.28 1749.95C2204.59 1793.14 2192.23 1839.31 2187.7 1886.56C2187.17 1891.79 2187.73 1897.09 2189.36 1902.09C2191 1907.1 2193.66 1911.7 2197.18 1915.62C2200.7 1919.53 2205 1922.67 2209.8 1924.82C2214.61 1926.98 2219.81 1928.1 2225.07 1928.12H2614.58Z" fill="white" stroke="#E20CCE" stroke-width="12.8366" stroke-linecap="round" stroke-linejoin="round"/>
<path d="M2614.58 2064.77C2689.86 2064.77 2750.89 2003.59 2750.89 1928.12C2750.89 1852.65 2689.86 1791.47 2614.58 1791.47C2539.3 1791.47 2478.27 1852.65 2478.27 1928.12C2478.27 2003.59 2539.3 2064.77 2614.58 2064.77Z" fill="white" stroke="#E20CCE" stroke-width="12.8366" stroke-linecap="round" stroke-linejoin="round"/>
<path d="M1991.45 2028.1H3237.71V2713.45C3237.71 2739.86 3227.22 2765.2 3208.54 2783.88C3189.86 2802.56 3164.52 2813.05 3138.1 2813.05H2091.06C2064.64 2813.05 2039.3 2802.56 2020.62 2783.88C2001.94 2765.2 1991.45 2739.86 1991.45 2713.45L1991.45 2028.1Z" fill="white"/>
<mask id="mask13_186_183" style="mask-type:luminance" maskUnits="userSpaceOnUse" x="1991" y="2028" width="1247" height="786">
<path d="M1991.45 2028.1H3237.71V2713.45C3237.71 2739.86 3227.22 2765.2 3208.54 2783.88C3189.86 2802.56 3164.52 2813.05 3138.1 2813.05H2091.06C2064.64 2813.05 2039.3 2802.56 2020.62 2783.88C2001.94 2765.2 1991.45 2739.86 1991.45 2713.45L1991.45 2028.1Z" fill="white"/>
</mask>
<g mask="url(#mask13_186_183)">
<path d="M3580.92 2123.75H1870.77V2290.48H3580.92V2123.75Z" fill="#FEEFFF" stroke="#E20CCE" stroke-width="12.8366" stroke-linecap="round" stroke-linejoin="round"/>
<path d="M3580.92 2613.63H1870.77V2780.36H3580.92V2613.63Z" fill="#FEEFFF" stroke="#E20CCE" stroke-width="12.8366" stroke-linecap="round" stroke-linejoin="round"/>
<path d="M3580.92 2390.31H1870.77V2492.91H3580.92V2390.31Z" fill="#FEEFFF" stroke="#E20CCE" stroke-width="12.8366" stroke-linecap="round" stroke-linejoin="round"/>
<path d="M2500.62 1594.86V3309.25H2666.94V1594.86H2500.62Z" fill="white" stroke="#E20CCE" stroke-width="12.8366" stroke-linecap="round" stroke-linejoin="round"/>
</g>
<path d="M1991.45 2028.1H3237.71V2713.45C3237.71 2739.86 3227.22 2765.2 3208.54 2783.88C3189.86 2802.56 3164.52 2813.05 3138.1 2813.05H2091.06C2064.64 2813.05 2039.3 2802.56 2020.62 2783.88C2001.94 2765.2 1991.45 2739.86 1991.45 2713.45L1991.45 2028.1Z" stroke="#E20CCE" stroke-width="12.8366" stroke-linecap="round" stroke-linejoin="round"/>
<path d="M3277.42 1867.43H1951.74C1922.96 1867.43 1899.62 1890.76 1899.62 1919.55V2084.9C1899.62 2113.69 1922.96 2137.02 1951.74 2137.02H3277.42C3306.2 2137.02 3329.54 2113.69 3329.54 2084.9V1919.55C3329.54 1890.76 3306.2 1867.43 3277.42 1867.43Z" fill="#FEEFFF" stroke="#E20CCE" stroke-width="12.8366" stroke-linecap="round" stroke-linejoin="round"/>
<path d="M2783.57 1864.54H2445.6V2813.06H2783.57V1864.54Z" fill="white" stroke="#E20CCE" stroke-width="12.8366" stroke-linecap="round" stroke-linejoin="round"/>
<path d="M2810.27 1859.62L2880.77 1893.68C2912.76 1909.14 2931.63 1933.54 2931.63 1959.47V2414.43L3018.85 2325.56L3144 2407.02V1955.12C3144 1926.15 3120.49 1899.33 3082.17 1884.59L3029.27 1864.24L2810.27 1859.62Z" fill="white" stroke="#E20CCE" stroke-width="12.8366" stroke-linecap="round" stroke-linejoin="round"/>
<path d="M2214.06 1954.85L2152.54 1990.83M2717.1 2541.26C2695.02 2568.64 2670.75 2594.2 2644.56 2617.68M3054.67 2139.71L3013.71 2186M2684.42 1586.13L2681 1592.98M2972.25 1150.79L2952.97 1170.07" stroke="#E20CCE" stroke-width="12.8366" stroke-linecap="round" stroke-linejoin="round"/>
</g>
<defs>
<clipPath id="clip0_186_183">
<rect width="3569" height="3146" fill="white"/>
</clipPath>
</defs>
</svg>
