<svg width="155" height="47" viewBox="0 0 155 47" fill="none" xmlns="http://www.w3.org/2000/svg">
<path d="M29.6386 17.3685L6.50797 39.9228L12.52 43.5511C19.394 47.6996 28.2115 46.6233 33.8857 40.943L35.4192 39.4079C40.6505 34.171 40.1155 25.5361 34.2778 20.9851L29.6386 17.3685Z" fill="url(#paint0_linear_278_101)"/>
<path d="M9.69191 29.5335L33.1129 7.28081L27.1484 3.57489C20.3287 -0.662382 11.498 0.299614 5.75063 5.90591L4.19737 7.42104C-1.10132 12.5897 -0.678228 21.2308 5.10004 25.8571L9.69191 29.5335Z" fill="url(#paint1_linear_278_101)"/>
<path d="M47.2363 29.8786L47.8306 26.8787C49.6985 27.6523 51.5757 28.039 53.4624 28.039C55.3867 28.039 56.3492 27.2938 56.3492 25.8033C56.3492 25.0486 56.132 24.4732 55.698 24.0769C55.2642 23.6807 54.4624 23.2751 53.2926 22.86C52.5191 22.577 52.0663 22.4166 51.9342 22.3789L50.7173 21.8695C50.1135 21.5677 49.7267 21.3601 49.5569 21.2469C48.6702 20.5677 48.1136 20.0111 47.8872 19.5772C47.4722 18.7848 47.2646 17.9074 47.2646 16.9452C47.2646 15.2095 47.8872 13.8888 49.1325 12.9832C50.3588 12.0587 51.8776 11.5964 53.6889 11.5964C56.0473 11.5964 57.915 12.0776 59.2922 13.0398L58.6416 16.2094C58.1884 15.8509 57.4811 15.5302 56.5192 15.2472C55.632 14.9453 54.7831 14.7944 53.9718 14.7944C53.1228 14.7944 52.4436 14.9736 51.9342 15.3321C51.4436 15.6906 51.1984 16.2283 51.1984 16.9452C51.1984 17.3226 51.2927 17.6811 51.4814 18.0206C51.5946 18.2093 51.8493 18.4452 52.2455 18.7281C52.3398 18.7848 52.5379 18.8791 52.8398 19.0112C53.1605 19.1432 53.3492 19.2187 53.4058 19.2376L54.7642 19.6904C58.4056 20.9356 60.2261 22.8789 60.2261 25.5203C60.2261 27.2372 59.6227 28.6145 58.415 29.6522C57.2077 30.6898 55.6606 31.2087 53.7737 31.2087C51.0946 31.2087 48.9155 30.7653 47.2363 29.8786ZM66.332 36.8971H62.3699V17.2849C65.0302 16.4924 67.228 16.0962 68.9637 16.0962C73.643 16.0962 75.9822 18.5395 75.9822 23.426C75.9822 25.6335 75.5015 27.4447 74.539 28.8598C73.4637 30.4446 71.624 31.237 69.0204 31.237C68.4358 31.237 67.5393 31.1332 66.332 30.9257V36.8971ZM66.332 19.464V27.756C67.0679 27.9636 67.7373 28.0673 68.3412 28.0673C69.5297 28.0673 70.4262 27.6617 71.0295 26.8504C71.6521 26.0391 71.9639 24.8882 71.9639 23.3978C71.9639 20.5866 70.8409 19.181 68.5958 19.181C67.7659 19.181 67.0113 19.2753 66.332 19.464ZM87.0589 27.5862V19.4357C86.587 19.1904 86.0211 19.0678 85.3606 19.0678C83.0776 19.0678 81.9363 20.7375 81.9363 24.0769C81.9363 25.3033 82.2003 26.3032 82.7289 27.0768C83.2569 27.8315 84.0021 28.2088 84.9646 28.2088C85.7758 28.2088 86.4737 28.0013 87.0589 27.5862ZM91.5303 31.0106H87.8229L87.3983 29.737C86.4171 30.6993 85.2005 31.1804 83.7474 31.1804C82.3323 31.1804 81.1625 30.8219 80.2385 30.105C79.3706 29.4069 78.7574 28.5579 78.3988 27.5579C78.0589 26.558 77.8895 25.3128 77.8895 23.8222C77.8895 22.7846 78.0215 21.8318 78.2855 20.9639C78.5495 20.0772 78.9647 19.2565 79.5307 18.5018C80.0966 17.7471 80.8892 17.1528 81.9077 16.7188C82.9456 16.2849 84.172 16.0679 85.5872 16.0679C87.4549 16.0679 89.266 16.4452 91.0205 17.1999V27.756C91.0584 28.888 91.2284 29.9729 91.5303 31.0106ZM100.667 31.237C98.535 31.237 96.7805 30.6144 95.4034 29.3692C94.0256 28.1051 93.337 26.2089 93.337 23.6807C93.337 21.1715 93.9976 19.2847 95.3181 18.0206C96.6392 16.7565 98.3463 16.1245 100.441 16.1245C102.214 16.1245 103.676 16.417 104.827 17.0018L104.318 19.9451C103.299 19.4546 102.224 19.2093 101.091 19.2093C98.5443 19.2093 97.2711 20.7092 97.2711 23.7091C97.2711 25.3505 97.6011 26.5297 98.2617 27.2466C98.9409 27.9447 99.9215 28.2938 101.205 28.2938C102.016 28.2938 103.167 28.1334 104.657 27.8126L104.884 30.6144C103.299 31.0295 101.893 31.237 100.667 31.237ZM113.803 16.1528C115.388 16.1528 116.643 16.5207 117.567 17.2565C118.511 17.9924 118.982 19.03 118.982 20.3696C118.982 21.2941 118.775 22.1053 118.36 22.8034C117.945 23.4826 117.397 24.0109 116.718 24.3883C116.058 24.7656 115.36 25.0486 114.624 25.2373C113.888 25.4071 113.133 25.492 112.36 25.492C111.624 25.492 110.945 25.4071 110.322 25.2373C110.341 26.1807 110.738 26.8882 111.511 27.3598C112.303 27.8126 113.351 28.039 114.652 28.039C115.973 28.039 117.171 27.8315 118.247 27.4164L118.643 30.2748C117.227 30.8408 115.388 31.1238 113.124 31.1238C110.728 31.1238 108.955 30.4635 107.803 29.1428C106.634 27.8032 106.049 26.1052 106.049 24.0487C106.049 23.011 106.19 22.0299 106.474 21.1054C106.756 20.1809 107.19 19.3413 107.775 18.5867C108.379 17.832 109.19 17.2377 110.209 16.8037C111.247 16.3698 112.445 16.1528 113.803 16.1528ZM115.02 20.4262C115.02 20.0677 114.869 19.747 114.567 19.464C114.284 19.181 113.945 19.0395 113.549 19.0395C112.492 19.0395 111.662 19.3885 111.058 20.0866C110.454 20.7847 110.124 21.7657 110.068 23.0298C110.464 23.1619 110.898 23.2279 111.37 23.2279C112.294 23.2279 113.133 22.9827 113.888 22.4922C114.643 21.9827 115.02 21.2941 115.02 20.4262ZM125.255 20.03V30.8691H121.292V16.3509H124.745L124.887 17.7093C126.132 16.6339 127.594 16.0962 129.273 16.0962C129.82 16.0962 130.273 16.134 130.632 16.2094L130.235 19.4357C129.801 19.3791 129.292 19.3508 128.707 19.3508C127.066 19.3508 125.915 19.5772 125.255 20.03Z" fill="#363636"/>
<path d="M136.384 10.111C137.132 10.111 137.794 10.2815 138.371 10.6224C138.961 10.9633 139.42 11.4353 139.747 12.0385C140.088 12.6416 140.259 13.3169 140.259 14.0642C140.259 14.8116 140.088 15.4868 139.747 16.09C139.42 16.68 138.961 17.1455 138.371 17.4864C137.794 17.8273 137.132 17.9978 136.384 17.9978C135.637 17.9978 134.968 17.8273 134.378 17.4864C133.788 17.1455 133.322 16.68 132.982 16.09C132.654 15.4868 132.49 14.8116 132.49 14.0642C132.49 13.3169 132.654 12.6416 132.982 12.0385C133.322 11.4353 133.788 10.9633 134.378 10.6224C134.968 10.2815 135.637 10.111 136.384 10.111ZM136.384 17.3487C137.329 17.3487 138.089 17.0406 138.666 16.4243C139.256 15.8081 139.551 15.0214 139.551 14.0642C139.551 13.1071 139.256 12.3204 138.666 11.7041C138.089 11.0879 137.329 10.7798 136.384 10.7798C135.427 10.7798 134.653 11.0879 134.063 11.7041C133.486 12.3204 133.198 13.1071 133.198 14.0642C133.198 15.0214 133.486 15.8081 134.063 16.4243C134.653 17.0406 135.427 17.3487 136.384 17.3487ZM138.095 13.1989C138.095 13.5267 138.003 13.802 137.82 14.0249C137.637 14.2347 137.381 14.3723 137.053 14.4379L138.233 16.1293L137.23 16.149L136.148 14.4773H135.696V16.149H134.85V11.9204H136.679C137.112 11.9204 137.453 12.0385 137.702 12.2745C137.964 12.4974 138.095 12.8055 138.095 13.1989ZM135.696 13.7692H136.62C136.804 13.7692 136.955 13.7233 137.073 13.6316C137.191 13.5398 137.25 13.4021 137.25 13.2185C137.25 13.035 137.191 12.9038 137.073 12.8252C136.955 12.7334 136.804 12.6875 136.62 12.6875H135.696V13.7692Z" fill="black"/>
<defs>
<linearGradient id="paint0_linear_278_101" x1="14.294" y1="-2.92182" x2="29.7657" y2="60.0701" gradientUnits="userSpaceOnUse">
<stop stop-color="#E20CCE"/>
<stop offset="0.0001" stop-color="#AE09C1"/>
<stop offset="0.261667" stop-color="#5105A9"/>
</linearGradient>
<linearGradient id="paint1_linear_278_101" x1="14.294" y1="-2.92182" x2="29.7657" y2="60.0701" gradientUnits="userSpaceOnUse">
<stop stop-color="#E20CCE"/>
<stop offset="0.0001" stop-color="#AE09C1"/>
<stop offset="0.261667" stop-color="#5105A9"/>
</linearGradient>
</defs>
</svg>
